<?xml version="1.0" encoding="utf-8"?>
<!-- Generator: Adobe Illustrator 23.0.3, SVG Export Plug-In . SVG Version: 6.00 Build 0)  -->
<svg version="1.1" id="Capa_1" xmlns="http://www.w3.org/2000/svg" xmlns:xlink="http://www.w3.org/1999/xlink" x="0px" y="0px"
	 viewBox="0 0 1200 1200" enable-background="new 0 0 1200 1200" xml:space="preserve">
<g>
	<path fill="#70483E" d="M831.854,925.928c-2.081,13.794-4.162,27.587-6.244,41.38c-0.463,3.072-4.086,5.262-6.925,5.273
		c-9.065,0.035-18.131,0.07-27.196,0.104c1.772,1.334,3.01,3.383,2.85,5.636c-2.399,33.759-10.992,65.933-25.314,96.578
		c-7.896,16.074-17.13,31.281-28.025,45.505c-6.376,8.324-16.666,25.389-26.903,28.748c-5.317,1.744-13.138,0.256-18.566,0.256
		c-62.263,0-124.525,0-186.788,0c-9.214,0-18.452,0.191-27.664,0c-12.247-0.253-19.058-11.62-26.512-20.586
		c-35.119-42.245-55.794-94.323-59.962-149.018c-0.172-2.254,1.051-4.275,2.805-5.601c-0.058-0.552-14.148,0.088-22.991,0.088
		c-2.393,0-5.102-1.342-6.201-3.557c-7.686-15.49-11.513-31.512-11.322-48.817c0.046-4.182,3.281-6.823,7.182-7.182
		c1.829-0.169,3.658-0.337,5.487-0.505c67.717-6.073,135.631-9.236,203.55-9.534c0-109.052,0-218.105,0-327.158
		C520.1,519.714,467.084,461.89,414.068,404.065c-2.171-2.368-2.782-5.844-1.123-8.703c3.285-5.661,6.571-11.321,9.856-16.981
		c1.163-2.004,2.813-3.051,4.561-3.37c2.18-0.714,4.656-0.333,6.719,1.916c46.345,50.548,92.69,101.097,139.036,151.646
		c0-88.591,0-196.158,0-284.749c0-3.891,3.299-7.182,7.182-7.182c11.255,0,22.51,0,33.766,0c3.891,0,7.182,3.3,7.182,7.182
		c0,89.063,0,197.101,0,286.164c46.778-51.02,93.556-102.041,140.334-153.061c3.142-3.428,9.037-2.41,11.28,1.454
		c3.285,5.661,6.57,11.321,9.856,16.981c1.65,2.843,1.049,6.335-1.123,8.703c-53.449,58.296-106.897,116.593-160.346,174.889
		c0,108.672,0,217.344,0,326.016c67.997,1.068,135.955,5.009,203.683,11.866C829.964,917.347,832.598,920.992,831.854,925.928z"/>
	<path fill="#517534" d="M1019.847,498.446c0.208,3.918-3.453,7.147-7.182,7.182c-24.348,0.23-48.697,0.459-73.045,0.689
		c22.186,12.777,44.372,25.553,66.558,38.33c3.211,1.849,4.719,6.611,2.576,9.826c-20.749,31.127-41.497,62.253-62.245,93.38
		c-1.973,2.959-6.565,4.962-9.826,2.577c-45.599-33.355-91.198-66.709-136.797-100.064c-3.072-2.247-4.767-6.28-2.577-9.826
		c12.329-19.964,24.657-39.928,36.986-59.892c-2.165-24.609-4.33-49.218-6.495-73.828c-0.372-4.229,3.597-6.755,7.182-7.182
		c3.13-0.372,6.26-0.745,9.389-1.117c54.115-6.441,108.23-12.882,162.345-19.323c4.025-0.479,6.995,3.658,7.182,7.182
		C1015.882,423.735,1017.864,461.09,1019.847,498.446z M790.533,559.192c-2.103-2.348-4.205-4.696-6.308-7.044
		c-2.744-3.064-7.322-2.385-10.157,0c-23.867,20.087-47.734,40.173-71.602,60.259c-2.231,1.877-2.845,6.298-1.123,8.703
		c32.884,45.939,65.769,91.879,98.653,137.818c2.927,4.089,7.413,4.484,11.28,1.453c29.44-23.079,58.88-46.158,88.321-69.237
		c3.169-2.484,2.334-7.551,0-10.157C863.243,640.39,826.888,599.791,790.533,559.192z M745.242,290.742
		c-1.689,2.249-1.919,5.413-0.526,8c14.791,27.465,29.581,54.931,44.371,82.396c1.986,3.688,6.378,4.099,9.826,2.577
		c51.685-22.813,103.371-45.625,155.056-68.438c3.716-1.64,4.133-6.678,2.577-9.827c-16.582-33.532-33.165-67.064-49.747-100.596
		c-1.725-3.489-6.652-4.414-9.826-2.576c-35.068,20.297-70.136,40.595-105.204,60.893c25.35-34.656,50.7-69.312,76.05-103.968
		c2.385-3.261,0.383-7.854-2.576-9.826c-31.127-20.749-62.254-41.497-93.38-62.246c-3.215-2.143-7.977-0.635-9.826,2.576
		c-25.772,44.752-51.544,89.504-77.316,134.256c11.702-47.883,23.403-95.767,35.105-143.649c0.935-3.825-2.198-7.614-5.813-8.332
		c-36.691-7.288-73.383-14.576-110.074-21.864c-3.679-0.731-7.833,2.017-8.332,5.813c-6.637,50.514-13.274,101.029-19.911,151.543
		c-19.92-47.093-39.84-94.185-59.76-141.277c-1.692-3.998-6.886-4.447-10.132-2.772c-34.576,17.841-69.152,35.682-103.728,53.524
		c-3.597,1.856-4.551,7.157-2.657,10.572c19.86,35.801,39.72,71.604,59.581,107.406c-38.235-27.969-76.471-55.937-114.706-83.905
		c-3.261-2.385-7.854-0.382-9.826,2.577c-20.749,31.127-41.497,62.253-62.246,93.38c-2.143,3.215-0.635,7.977,2.577,9.826
		c33.052,19.034,66.103,38.068,99.155,57.102c-43.605-14.031-87.209-28.063-130.814-42.095c-3.692-1.188-7.841,1.395-8.835,5.016
		c-9.896,36.076-19.792,72.151-29.689,108.227c-0.975,3.556,1.202,8.052,5.016,8.835c6.508,1.335,13.015,2.669,19.523,4.004
		c-13.929,1.087-27.858,2.175-41.787,3.262c-3.503,0.274-7.682,3.087-7.182,7.182c4.534,37.133,9.068,74.264,13.602,111.397
		c0.594,4.867,4.09,7.871,9.091,6.925c29.113-5.507,58.225-11.013,87.338-16.52c-16.771,7.402-33.541,14.804-50.312,22.206
		c-3.716,1.641-4.134,6.678-2.577,9.826c16.582,33.532,33.164,67.064,49.747,100.596c0.393,0.796,0.968,1.44,1.636,1.967
		c-8.057,6.774-16.577,14.051-21.253,22.24c-9.377,16.421,15.26,32.375,25.156,41.857c14.452,13.847,28.333,30.051,44.163,42.314
		c15.255,11.816,25.698-3.021,34.662-13.695c10.12-12.05,20.24-24.1,30.361-36.151c-6.449,11.438-16.23,24.689-18.726,37.283
		c-3.676,18.548,24.752,25.852,37.147,31.7c18.101,8.54,36.41,19.497,55.315,26.098c18.218,6.36,23.408-11.027,28.518-23.995
		c16.762-42.536,33.524-85.073,50.287-127.609c8.192-20.787-24.227-28.333-37.28-33.946c-10.964-4.714-21.928-9.429-32.891-14.143
		c-7.266-3.124-14.444-6.835-22.269-2.708c-3.517,1.855-6.57,5.209-9.274,9.249c-6.088-5.883-13.265-11.013-17.546-14.838
		c-5.212-4.658-10.425-9.316-15.638-13.974c6.319-3.657,12.637-7.314,18.956-10.972c2.728-1.579,5.456-3.158,8.184-4.737
		c3.441-1.992,4.413-6.415,2.576-9.826c-14.79-27.466-29.581-54.931-44.371-82.397c-1.986-3.687-6.378-4.098-9.826-2.576
		c-6.408,2.829-12.817,5.657-19.226,8.486c-2.411-15.307-4.822-30.614-7.233-45.921c0.429,0.088,0.858,0.176,1.286,0.264
		c3.088,0.633,6.175,1.267,9.263,1.9c3.695,0.758,7.89-1.038,8.834-5.016c7.077-29.821,14.154-59.642,21.231-89.462
		c2.452,1.413,4.905,2.825,7.357,4.237c2.731,1.573,5.463,3.146,8.194,4.719c3.422,1.971,7.774,0.747,9.826-2.576
		c14.59-23.627,29.181-47.253,43.771-70.879c1.868,3.367,3.736,6.735,5.604,10.102c1.628,2.935,3.256,5.87,4.884,8.805
		c2.054,3.702,6.615,4.748,10.132,2.772c28.32-15.913,56.641-31.826,84.962-47.74c2.48-1.394,3.503-3.889,3.493-6.485
		c27.973,4.553,55.946,9.106,83.919,13.659c2.441,0.397,4.641-0.437,6.207-2.003c0.268,0.224,0.535,0.45,0.839,0.638
		C700.617,263.184,722.929,276.963,745.242,290.742z M669.934,906.25c5.32,0.191,10.64,0.376,15.959,0.603
		c6.868-10.84,13.736-21.68,20.604-32.521c19.872,8.669,43.033,1.791,56.485-15.526c19.656-25.304,14.575-58.69,4.502-86.701
		c-0.642-1.67-1.284-3.34-1.926-5.01c-1.277-3.322-4.939-6.547-8.835-5.016c-26.332,10.345-56.476,21.955-70.714,48.314
		c-6.141,11.369-9.242,24.791-7.185,37.652c1.651,10.32,7.376,15.002,15.003,19.461c-7.616,12.021-15.232,24.042-22.848,36.062
		C670.401,904.479,670.08,905.378,669.934,906.25z"/>
	<path fill="#B33F3D" d="M831.854,925.928c-2.081,13.794-4.162,27.587-6.244,41.38c-0.463,3.072-4.086,5.262-6.925,5.273
		c-148.088,0.569-296.177,1.139-444.265,1.711c-2.393,0.009-5.102-1.342-6.201-3.557c-7.686-15.49-11.513-31.512-11.322-48.817
		c0.046-4.182,3.281-6.823,7.182-7.182c1.829-0.169,3.658-0.337,5.487-0.505c151.514-13.589,304.014-12.717,455.362,2.607
		C829.964,917.347,832.598,920.992,831.854,925.928z"/>
	<path fill="#963130" d="M794.339,978.321c-2.399,33.759-10.992,65.933-25.314,96.578c-7.896,16.074-17.13,31.281-28.025,45.505
		c-6.376,8.324-16.666,25.389-26.903,28.748c-5.317,1.744-13.138,0.256-18.566,0.256c-62.263,0-124.525,0-186.788,0
		c-9.214,0-18.452,0.191-27.664,0c-12.247-0.253-19.058-11.62-26.512-20.586c-35.119-42.245-55.794-94.323-59.962-149.018
		c-0.172-2.254,1.051-4.275,2.805-5.601c131.359-0.507,262.718-1.012,394.078-1.518
		C793.261,974.018,794.499,976.068,794.339,978.321z"/>
	<path fill="#65993D" d="M999.43,421.809c-10.24-35.979-20.481-71.958-30.722-107.937c-1.004-3.528-5.142-6.334-8.835-5.016
		c-27.93,9.966-55.86,19.932-83.789,29.897c-17.869-31.378-35.737-62.756-53.606-94.134c-1.844-3.237-6.607-4.7-9.826-2.576
		c-37.968,25.044-75.937,50.089-113.905,75.133c15.493-48.147,30.987-96.294,46.481-144.441c1.188-3.692-1.395-7.841-5.016-8.835
		c-36.075-9.896-72.151-19.792-108.226-29.688c-3.556-0.976-8.052,1.201-8.835,5.016c-9.272,45.209-18.544,90.417-27.816,135.625
		c-23.035-44.894-46.07-89.788-69.104-134.682c-1.785-3.479-6.599-4.414-9.826-2.576c-32.507,18.512-65.014,37.023-97.521,55.534
		c-3.238,1.844-4.7,6.607-2.576,9.826c23.09,35.004,46.179,70.009,69.269,105.013c-40.711-13.101-81.422-26.201-122.132-39.302
		c-3.692-1.188-7.841,1.395-8.835,5.016c-6.223,22.684-12.445,45.367-18.667,68.05c-42.167-4.569-84.333-9.138-126.5-13.708
		c-4.034-0.437-6.955,3.654-7.182,7.182c-2.405,37.331-4.811,74.662-7.216,111.992c-0.25,3.874,3.493,7.186,7.182,7.182
		c29.134-0.032,58.269-0.064,87.403-0.096c-3.374,1.318-5.219,4.313-4.489,8.443c6.513,36.837,13.027,73.674,19.54,110.511
		c0.689,3.897,5.352,5.87,8.835,5.016c2.885-0.707,5.77-1.415,8.655-2.122c-16.721,15.513-33.443,31.026-50.164,46.538
		c-2.832,2.627-2.683,7.506,0,10.157c26.613,26.29,53.226,52.579,79.838,78.868c2.614,2.582,7.597,2.955,10.157,0
		c5.535-6.39,11.07-12.779,16.605-19.169c-0.316,2.766,1.365,5.732,3.591,7.215c31.127,20.749,62.254,41.497,93.38,62.246
		c3.215,2.143,7.977,0.635,9.826-2.577c27.197-47.226,54.393-94.451,81.59-141.677c10.722-18.619-16.739-29.681-28.558-36.979
		c-10.287-6.353-20.574-12.706-30.861-19.058c-6.958-4.297-19.092-15.737-27.628-8.991c-3.896,3.079-7.42,7.649-10.716,12.576
		c-7.202-6.637-14.404-13.273-21.606-19.91c8.226-2.017,16.453-4.034,24.679-6.051c3.061-0.751,6.122-1.502,9.184-2.252
		c3.927-0.963,5.806-5.122,5.016-8.834c-6.495-30.511-12.99-61.023-19.485-91.534c-0.582-2.735-3.981-5.662-6.925-5.272
		c-25.86,3.418-51.72,6.836-77.58,10.255c0.394-13.305,0.788-26.609,1.183-39.913c35.466,7.274,70.933,14.548,106.399,21.822
		c3.088,0.633,6.175,1.267,9.263,1.9c3.695,0.757,7.89-1.038,8.835-5.016c5.787-24.386,11.575-48.773,17.362-73.159
		c20.956-12.918,41.912-25.834,62.868-38.752c-0.006,0.028-0.011,0.055-0.017,0.083c-0.758,3.694,1.038,7.89,5.016,8.834
		c25.706,6.1,51.412,12.201,77.119,18.302c-0.751,0.495-1.503,0.991-2.254,1.487c-3.179,2.097-4.705,6.373-2.576,9.826
		c13.783,22.36,27.566,44.721,41.349,67.081c-0.561-0.115-1.123-0.23-1.684-0.345c-3.088-0.633-6.175-1.267-9.263-1.9
		c-3.695-0.758-7.89,1.037-8.834,5.016c-7.203,30.352-14.406,60.703-21.609,91.055c-0.925,3.898,1.208,7.609,5.016,8.835
		c24.671,7.939,49.342,15.878,74.012,23.817c-4.355,7.052-8.709,14.104-13.064,21.155c-5.788-5.188-11.577-10.376-17.365-15.563
		c-2.347-2.104-4.694-4.207-7.041-6.311c-2.941-2.636-7.452-2.338-10.147,0.489c-21.524,22.58-43.048,45.16-64.571,67.739
		c-2.876,3.017-2.051,7.313,0.489,10.146c37.718,42.061,75.436,84.122,113.154,126.184c2.697,3.008,7.605,1.998,10.147-0.49
		c24.465-23.943,48.93-47.885,73.395-71.828c9.418,6.889,18.837,13.779,28.255,20.668c3.261,2.385,7.854,0.382,9.826-2.577
		c20.749-31.127,41.497-62.253,62.245-93.38c2.143-3.215,0.635-7.977-2.577-9.826c-26.765-15.414-53.531-30.828-80.296-46.242
		c7.349-26.79,14.698-53.58,22.047-80.369c41.741-9.936,83.482-19.872,125.223-29.808
		C998.166,429.75,1000.465,425.444,999.43,421.809z M797.223,392.096c4.672,14.483,9.343,28.966,14.015,43.448
		c-23.503-4.82-47.006-9.641-70.51-14.461C759.559,411.422,778.391,401.759,797.223,392.096z M767.484,772.106
		c-0.642-1.67-1.284-3.34-1.926-5.01c-1.277-3.322-4.939-6.547-8.835-5.016c-26.332,10.345-56.476,21.955-70.714,48.314
		c-6.141,11.369-9.242,24.791-7.185,37.652c1.651,10.32,7.376,15.002,15.003,19.461c-7.616,12.021-15.232,24.042-22.848,36.062
		c-0.577,0.911-0.898,1.81-1.044,2.682c5.32,0.191,10.64,0.376,15.959,0.603c6.868-10.84,13.736-21.68,20.604-32.521
		c19.872,8.669,43.033,1.791,56.485-15.526C782.638,833.503,777.556,800.117,767.484,772.106z M762.72,819.446
		c-8.379,2.286-16.506,5.412-24.81,7.949c-4.673,8.49-9.966,16.638-15.785,24.495c7.213-1.688,14.417-3.419,21.701-4.76
		c6.788-1.25,9.673,9.134,2.864,10.388c-12.854,2.367-25.452,5.979-38.307,8.346c-3.08,0.567-5.341-1.265-6.273-3.547
		c-0.431-0.502-0.801-1.096-1.057-1.823c-3.86-10.949-7.721-21.897-11.581-32.846c-2.314-6.562,8.098-9.358,10.388-2.864
		c2.636,7.474,5.271,14.949,7.906,22.423c6.627-8.463,12.528-17.332,17.632-26.638c-0.218-0.358-0.41-0.75-0.56-1.193
		c-2.796-8.291-5.592-16.582-8.389-24.873c-2.224-6.595,8.184-9.398,10.388-2.864c1.74,5.16,3.481,10.32,5.221,15.481
		c3.329-7.346,6.277-14.899,8.744-22.711c2.779-8.797,16.641-5.016,13.851,3.818c-2.794,8.848-6.165,17.382-9.991,25.667
		c5.034-1.712,10.065-3.438,15.193-4.837C766.565,807.227,769.401,817.623,762.72,819.446z"/>
	<path fill="#28521A" d="M844.363,283.05c4.38-8.053,12.915-13.519,22.727-13.519c14.279,0,25.855,11.576,25.855,25.855
		c0,14.279-11.576,25.855-25.855,25.855c-0.34,0-0.671-0.038-1.008-0.051C858.843,308.477,851.603,295.763,844.363,283.05z
		 M623.15,139.227c0.782-3.815,5.279-5.992,8.835-5.016c11.159,3.061,22.319,6.122,33.478,9.184
		c-0.351-13.973-11.764-25.199-25.822-25.199c-14.279,0-25.855,11.576-25.855,25.855c0,5.823,1.948,11.177,5.196,15.499
		C620.372,152.776,621.761,146.002,623.15,139.227z M903.721,524.242c-14.279,0-25.855,11.576-25.855,25.855
		c0,3.343,0.656,6.528,1.811,9.461c9.304,5.358,18.607,10.716,27.911,16.074c12.44-1.871,21.987-12.573,21.987-25.534
		C929.576,535.817,918.001,524.242,903.721,524.242z M775.983,214.961c14.279,0,25.855-11.576,25.855-25.855
		c0-14.279-11.576-25.855-25.855-25.855c-14.279,0-25.855,11.576-25.855,25.855C750.128,203.385,761.703,214.961,775.983,214.961z
		 M901.626,452.731c-0.252,1.449-0.409,2.931-0.409,4.452c0,14.279,11.576,25.855,25.855,25.855
		c14.279,0,25.855-11.576,25.855-25.855c0-5.795-1.93-11.126-5.15-15.438C932.393,445.407,917.009,449.069,901.626,452.731z
		 M505.936,143.556c-6.391-5.421-15.287-7.645-23.939-5.136c-12.763,3.701-20.473,16.38-18.276,29.175
		C477.793,159.582,491.865,151.569,505.936,143.556z M385.144,268.611c13.714-3.977,21.608-18.319,17.631-32.033
		c-3.977-13.714-18.318-21.607-32.033-17.631c-13.714,3.977-21.608,18.318-17.631,32.033
		C357.088,264.694,371.43,272.588,385.144,268.611z M435.564,324.307c-14.279,0-25.855,11.576-25.855,25.855
		s11.576,25.855,25.855,25.855c14.279,0,25.855-11.576,25.855-25.855S449.843,324.307,435.564,324.307z M397.958,464.551
		c-14.279,0-25.855,11.576-25.855,25.855c0,14.279,11.576,25.855,25.855,25.855c14.279,0,25.855-11.576,25.855-25.855
		C423.812,476.127,412.237,464.551,397.958,464.551z M763.381,457.391c-14.279,0-25.855,11.576-25.855,25.855
		s11.576,25.855,25.855,25.855s25.855-11.576,25.855-25.855S777.661,457.391,763.381,457.391z M766.185,315.222
		c-14.279,0-25.855,11.576-25.855,25.855s11.576,25.855,25.855,25.855c14.279,0,25.855-11.576,25.855-25.855
		S780.464,315.222,766.185,315.222z M661.024,213.854c-14.279,0-25.855,11.576-25.855,25.855c0,14.279,11.576,25.855,25.855,25.855
		c14.279,0,25.855-11.576,25.855-25.855C686.878,225.43,675.303,213.854,661.024,213.854z M515.053,220.957
		c-14.279,0-25.855,11.576-25.855,25.855c0,14.279,11.576,25.855,25.855,25.855c14.279,0,25.855-11.576,25.855-25.855
		C540.908,232.532,529.332,220.957,515.053,220.957z M483.577,623.795c-14.279,0-25.855,11.576-25.855,25.855
		c0,14.279,11.576,25.855,25.855,25.855s25.855-11.576,25.855-25.855C509.432,635.371,497.856,623.795,483.577,623.795z
		 M288.542,372.661c-14.279,0-25.855,11.576-25.855,25.855s11.576,25.855,25.855,25.855c14.279,0,25.855-11.576,25.855-25.855
		S302.821,372.661,288.542,372.661z M374.727,589.878c-14.279,0-25.855,11.576-25.855,25.855c0,14.279,11.576,25.855,25.855,25.855
		c14.279,0,25.855-11.576,25.855-25.855C400.581,601.454,389.006,589.878,374.727,589.878z M817.445,565.145
		c-14.279,0-25.855,11.576-25.855,25.855c0,14.279,11.576,25.855,25.855,25.855c14.279,0,25.855-11.576,25.855-25.855
		C843.299,576.72,831.724,565.145,817.445,565.145z M738.422,610.448c-13.971-2.952-27.689,5.98-30.642,19.951
		c-2.952,13.971,5.98,27.689,19.951,30.641c13.971,2.952,27.689-5.98,30.641-19.951S752.392,613.4,738.422,610.448z
		 M902.025,364.432c-14.043-2.584-27.523,6.706-30.107,20.749c-2.584,14.043,6.706,27.523,20.749,30.107
		c14.043,2.584,27.523-6.706,30.107-20.749C925.358,380.495,916.069,367.016,902.025,364.432z"/>
</g>
</svg>
